<svg  viewBox="0 0 32 30"  xmlns="http://www.w3.org/2000/svg">
<path d="M31.9375 6.49996V7.56246C31.9375 7.70335 31.8815 7.83848 31.7819 7.93811C31.6823 8.03774 31.5471 8.09371 31.4062 8.09371H29.8125V8.89058C29.8125 9.33066 29.4557 9.68746 29.0156 9.68746H2.98438C2.5443 9.68746 2.1875 9.33066 2.1875 8.89058V8.09371H0.59375C0.452854 8.09371 0.317728 8.03774 0.2181 7.93811C0.118471 7.83848 0.0625 7.70335 0.0625 7.56246V6.49996C0.0625008 6.39486 0.0936763 6.29212 0.152082 6.20474C0.210488 6.11736 0.293499 6.04927 0.390613 6.00908L15.7969 0.165332C15.9269 0.111475 16.0731 0.111475 16.2031 0.165332L31.6094 6.00908C31.7065 6.04927 31.7895 6.11736 31.8479 6.20474C31.9063 6.29212 31.9375 6.39486 31.9375 6.49996ZM30.3438 26.6875H1.65625C0.776035 26.6875 0.0625 27.401 0.0625 28.2812V29.3437C0.0625 29.4846 0.118471 29.6197 0.2181 29.7194C0.317728 29.819 0.452854 29.875 0.59375 29.875H31.4062C31.5471 29.875 31.6823 29.819 31.7819 29.7194C31.8815 29.6197 31.9375 29.4846 31.9375 29.3437V28.2812C31.9375 27.401 31.224 26.6875 30.3438 26.6875ZM5.375 10.75V23.5H2.98438C2.5443 23.5 2.1875 23.8568 2.1875 24.2968V25.625H29.8125V24.2968C29.8125 23.8568 29.4557 23.5 29.0156 23.5H26.625V10.75H22.375V23.5H18.125V10.75H13.875V23.5H9.625V10.75H5.375Z"/>
</svg>
